<svg id="Layer_1" enable-background="new 0 0 463.998 463.998" height="512" viewBox="0 0 463.998 463.998" width="512" xmlns="http://www.w3.org/2000/svg"><ellipse cx="212.227" cy="403.331" fill="#d6f4fc" rx="163.911" ry="60.667"/><path d="m142.059 437.684c8.524 7.191 1.729 20.983-9.195 18.741-50.42-10.345-84.546-30.243-84.546-53.097 0-32.896 67.257-56.585 144.169-60.216 12.868-.607 15.816 17.801 3.378 21.153-60.889 16.415-85.442 46.731-53.806 73.419z" fill="#e8f8fc"/><path d="m337.908 270.488c-75.758 89.789-53.224 63.083-103 122.07-11.86 14.05-33.51 14.05-45.36 0-48.399-57.367-26.625-31.561-103-122.07-55.1-65.3-51.01-161.91 9.4-222.33 64.228-64.228 168.367-64.193 232.56 0 60.037 60.037 64.823 156.648 9.4 222.33z" fill="#fe4f60"/><path d="m212.228 92.258c39.6 0 71.71 32.11 71.71 71.71 0 39.61-32.11 71.72-71.71 71.72-39.61 0-71.72-32.11-71.72-71.72 0-39.6 32.11-71.71 71.72-71.71z" fill="#d6f4fc"/><path d="m252.982 104.958c9.267 6.412 4.526 20.952-6.743 20.922-37.835-.102-72.219 30.351-72.03 72.122.051 11.316-14.469 16.128-20.926 6.835-32.7-47.067.794-112.578 58.945-112.578 15.137-.001 29.18 4.69 40.754 12.699z" fill="#bdeffc"/><g fill="#9fe2f5"><path d="m347.408 135.288c-13.227.032-20.071-16.123-10.61-25.6 5.899-5.878 15.361-5.859 21.22 0 9.506 9.505 2.617 25.6-10.61 25.6z"/><path d="m310.642 94.835c-3.124-3.125-3.124-8.189 0-11.314 20.439-20.438 53.359-20.159 73.54-.003 3.126 3.122 3.129 8.188.007 11.313-3.121 3.128-8.187 3.131-11.313.007-13.978-13.96-36.776-14.149-50.919-.003-3.127 3.124-8.19 3.123-11.315 0z"/><path d="m402.573 65.137c-29.668-29.657-79.206-31.113-110.317-.002-3.125 3.125-8.19 3.124-11.313.001-3.125-3.124-3.125-8.189-.001-11.313 37.471-37.475 97.178-35.751 132.942-.002 3.125 3.124 3.126 8.189.003 11.313-3.124 3.126-8.191 3.125-11.314.003z"/></g><path d="m196.223.739c41.294-3.907 53.187 54.591 13.84 67.713-55.84 18.623-99.809 67.173-110.057 129.018-4.5 27.16-42.962 28.186-48.632 1.246-20.443-97.145 48.53-188.864 144.849-197.977z" fill="#ff6d7a"/></svg>