<svg id="Capa_1" enable-background="new 0 0 512 512" height="512" viewBox="0 0 512 512" width="512" xmlns="http://www.w3.org/2000/svg"><g><path d="m501.698 439.154h-491.396c-5.69 0-10.302-4.612-10.302-10.301v-312.405c0-5.69 4.612-10.302 10.302-10.302h491.396c5.69 0 10.302 4.612 10.302 10.302v312.405c0 5.689-4.613 10.301-10.302 10.301z" fill="#dd5790"/><path d="m501.698 439.154h-14.674v-333.008h14.674c5.69 0 10.302 4.612 10.302 10.302v312.405c0 5.689-4.613 10.301-10.302 10.301z" fill="#da387d"/><circle cx="256" cy="272.65" fill="#f4fbff" r="124.878"/><path d="m335.584 176.415c17.89 21.608 28.643 49.34 28.643 79.585 0 68.968-55.91 124.878-124.878 124.878-30.244 0-57.976-10.753-79.585-28.643 22.905 27.667 57.511 45.294 96.235 45.294 68.968 0 124.878-55.91 124.878-124.878.001-38.725-17.626-73.33-45.293-96.236z" fill="#e4f6ff"/><circle cx="256" cy="272.65" fill="#3d4fc3" r="86.82"/><circle cx="256" cy="272.65" fill="#78d0b1" r="48.762"/><path d="m279.614 230.007c3.893 7.001 6.119 15.051 6.119 23.614 0 26.887-21.875 48.762-48.762 48.762-8.563 0-16.613-2.226-23.614-6.119 8.33 14.983 24.319 25.148 42.643 25.148 26.887 0 48.762-21.875 48.762-48.762 0-18.324-10.165-34.313-25.148-42.643z" fill="#66b49d"/><path d="m459.031 139.447h-48.079c-5.69 0-10.302 4.612-10.302 10.302v27.266c0 5.69 4.612 10.302 10.302 10.302h48.079c5.69 0 10.302-4.612 10.302-10.302v-27.266c0-5.69-4.612-10.302-10.302-10.302z" fill="#f4fbff"/><path d="m122.901 72.845h-48.079c-5.69 0-10.302 4.612-10.302 10.302v22.999h68.683v-22.999c0-5.689-4.612-10.302-10.302-10.302z" fill="#3d4fc3"/><circle cx="448.52" cy="241.431" fill="#f6e781" r="20.813"/></g></svg>